<!DOCTYPE svg PUBLIC "-//W3C//DTD SVG 1.1//EN" "http://www.w3.org/Graphics/SVG/1.1/DTD/svg11.dtd">
<svg width="170pt" height="48pt" viewBox="0 0 170 48" version="1.1" xmlns="http://www.w3.org/2000/svg">
<g id="#000000ff">
<path fill="#000000" opacity="1.00" d=" M 8.47 5.64 C 10.47 4.39 13.71 5.61 13.71 8.16 C 14.00 10.71 10.93 12.58 8.75 11.34 C 6.57 10.33 6.32 6.81 8.47 5.64 Z" />
<path fill="#000000" opacity="1.00" d=" M 19.82 5.28 C 26.20 5.60 32.74 4.54 39.01 5.97 C 48.17 8.83 49.63 22.75 42.03 28.11 C 37.36 31.57 31.23 30.36 25.82 30.56 C 25.82 34.94 25.81 39.31 25.81 43.69 C 23.81 43.69 21.82 43.69 19.82 43.69 C 19.81 30.89 19.81 18.08 19.82 5.28 M 25.82 10.25 C 25.81 15.33 25.81 20.41 25.82 25.49 C 29.46 25.40 33.28 25.95 36.77 24.67 C 42.32 22.35 42.07 12.71 36.26 10.86 C 32.88 9.89 29.29 10.33 25.82 10.25 Z" />
<path fill="#000000" opacity="1.00" d=" M 50.94 5.28 C 52.86 5.28 54.77 5.28 56.69 5.28 C 56.67 10.27 56.76 15.26 56.60 20.25 C 59.50 15.35 66.30 14.01 71.08 16.82 C 73.91 18.50 75.28 21.84 75.35 25.02 C 75.59 31.24 75.36 37.46 75.45 43.68 C 73.48 43.68 71.52 43.68 69.56 43.69 C 69.38 37.38 69.93 31.03 69.30 24.75 C 68.22 18.63 58.19 19.29 57.13 25.12 C 56.29 31.26 56.97 37.51 56.75 43.69 C 54.81 43.69 52.88 43.69 50.95 43.69 C 50.93 30.89 50.94 18.08 50.94 5.28 Z" />
<path fill="#000000" opacity="1.00" d=" M 140.18 21.25 C 144.34 13.72 156.79 13.29 161.38 20.59 C 163.50 23.69 163.59 27.57 163.72 31.18 C 157.06 31.20 150.40 31.16 143.74 31.21 C 144.23 33.43 144.46 36.01 146.37 37.55 C 149.87 40.59 155.85 39.64 158.06 35.48 C 159.89 35.46 161.73 35.46 163.56 35.47 C 161.09 45.55 145.61 46.99 140.35 38.59 C 137.27 33.41 137.28 26.51 140.18 21.25 M 143.77 27.09 C 148.51 27.14 153.25 27.14 157.99 27.09 C 157.55 23.52 155.03 19.82 151.03 20.09 C 147.02 19.87 144.43 23.53 143.77 27.09 Z" />
<path fill="#000000" opacity="1.00" d=" M 7.44 43.69 C 7.44 34.37 7.42 25.06 7.45 15.75 C 9.38 15.75 11.31 15.75 13.25 15.75 C 13.25 25.07 13.26 34.38 13.24 43.69 C 11.31 43.69 9.37 43.69 7.44 43.69 Z" />
<path fill="#000000" opacity="1.00" d=" M 87.28 16.34 C 92.77 14.25 99.98 15.44 103.40 20.55 C 106.73 25.66 106.77 32.67 103.96 38.01 C 99.32 46.44 84.86 46.00 80.93 37.12 C 77.70 30.05 79.29 19.43 87.28 16.34 M 90.38 20.53 C 84.86 22.57 84.51 29.97 86.20 34.75 C 87.72 39.87 95.54 40.81 98.34 36.34 C 100.51 32.68 100.52 27.89 98.87 24.03 C 97.52 20.81 93.58 19.48 90.38 20.53 Z" />
<path fill="#000000" opacity="1.00" d=" M 109.94 15.75 C 111.80 15.75 113.67 15.75 115.53 15.75 C 115.49 17.27 115.45 18.79 115.40 20.31 C 118.21 15.54 124.64 14.07 129.46 16.55 C 132.52 18.14 134.01 21.66 134.01 24.98 C 134.17 31.21 134.01 37.45 134.05 43.69 C 132.12 43.69 130.18 43.69 128.25 43.69 C 128.11 37.46 128.53 31.21 128.06 25.00 C 127.64 19.97 120.46 19.02 117.52 22.42 C 115.87 24.18 115.80 26.73 115.74 29.00 C 115.71 33.89 115.78 38.79 115.75 43.69 C 113.81 43.69 111.88 43.69 109.94 43.69 C 109.93 34.38 109.93 25.06 109.94 15.75 Z" />
</g>
</svg>
